<?xml version="1.0" encoding="utf-8"?>
<!-- Generator: Adobe Illustrator 19.2.1, SVG Export Plug-In . SVG Version: 6.00 Build 0)  -->
<svg version="1.1" xmlns="http://www.w3.org/2000/svg" xmlns:xlink="http://www.w3.org/1999/xlink" x="0px" y="0px"
	 viewBox="0 0 125 125" style="enable-background:new 0 0 125 125;" xml:space="preserve">
<style type="text/css">
	.st0{fill:none;stroke:#3C3C3C;stroke-width:3;stroke-miterlimit:10;}
</style>
<g id="Layer_1">
</g>
<g id="Layer_2">
	<path class="st0" d="M118.2,7.5C108,7.5,90.8,11.2,86,12c-4.8,0.8-25.2,5.8-40.7,18.6s-23.1,30.3-19.9,51c0,0,2.8,7.2-2.8,13.1
		S6.3,109.4,6.3,109.4s-2.8,8.4,0,8.8s18.3-19.1,21.1-19.9c2.8-0.8,6.4-1.2,14.3,0.4c8,1.6,25.4,2.8,31,1.9
		c7.6-1.1,29.6-9.4,35.9-31S121.8,7.5,118.2,7.5z"/>
</g>
</svg>
